<svg xmlns="http://www.w3.org/2000/svg" viewBox="0 0 455.17219 261.54974"><defs><style>.cls-1{fill:#ff0;}.cls-2{fill:aqua;}.cls-3{fill:#f0f;}.cls-4{fill:lime;}.cls-5{fill:red;}.cls-6{fill:blue;}</style></defs><title>Asset 4</title><g id="Layer_2" data-name="Layer 2"><g id="Layer_1-2" data-name="Layer 1"><path id="yellow-255" class="cls-1" d="M93.76894,178.34662c-19.57715,16.51855-23.55371,26.001-23.55371,34.87207h65.46143v43.13086H12.70742V244.1142c0-33.64844,11.624-57.20215,47.71924-91.76807,22.94189-21.71875,29.67187-34.26025,29.67187-45.27246,0-11.624-5.20019-16.2124-14.37695-16.2124-9.78858,0-14.07129,6.11816-14.07129,16.2124v15.29492H16.684V100.64984c0-25.69482,18.96533-53.2251,57.814-53.2251,46.18994,0,62.09619,28.14209,62.09619,59.34327C136.59414,128.79242,129.25283,148.36957,93.76894,178.34662Zm165.79248,36.707v41.2959H212.76015v-41.2959H144.24062v-33.9541L215.51357,52.62494h44.04785V177.123H276.998v37.93066Zm-46.80127-87.791L186.75966,177.123h26.00049Zm143.45752,134.2871c-38.542,0-64.2373-21.71875-64.2373-54.75488V190.27631c0-16.21192,6.72949-30.895,20.18847-36.707-13.459-5.81153-20.18847-20.49463-20.18847-36.707V102.17963c0-33.03662,25.69531-54.75489,64.2373-54.75489,38.84863,0,64.23731,21.71827,64.23731,54.75489v14.68261c0,16.21241-6.7295,30.89551-20.18848,36.707,13.459,5.812,20.18848,20.49511,20.18848,36.707v16.51855C420.455,239.831,395.0663,261.54974,356.21767,261.54974Zm14.98926-156.92285c0-8.56543-6.11816-13.76562-14.98926-13.76562-8.56445,0-14.98828,5.20019-14.98828,13.76562v24.47119c0,8.56495,6.42383,14.07129,14.98828,14.07129,8.8711,0,14.98926-5.50634,14.98926-14.07129Zm0,73.41407c0-8.56543-6.11816-13.76514-14.98926-13.76514-8.56445,0-14.98828,5.19971-14.98828,13.76514V204.3476c0,8.56445,6.42383,13.76464,14.98828,13.76464,8.8711,0,14.98926-5.20019,14.98926-13.76464Z"/><path id="cyan-135" class="cls-2" d="M81.06152,130.92188c-19.57714,16.51855-23.55371,26.001-23.55371,34.87207h65.46143V208.9248H0V196.68945C0,163.041,11.624,139.4873,47.71924,104.92139,70.66113,83.20264,77.39111,70.66113,77.39111,59.64893c0-11.624-5.20019-16.21241-14.37695-16.21241-9.78857,0-14.07129,6.11817-14.07129,16.21241V74.94385H3.97656V53.2251C3.97656,27.53027,22.94189,0,61.79053,0c46.18994,0,62.09619,28.14209,62.09619,59.34326C123.88672,81.36768,116.54541,100.94482,81.06152,130.92188Zm165.79248,36.707V208.9248H200.05273V167.62891H131.5332V133.6748l71.273-128.4746H246.854v124.498h17.43653v37.93067Zm-46.80127-87.791-26.00048,49.86035h26.00048ZM343.51025,214.125c-38.542,0-64.2373-21.71875-64.2373-54.75488V142.85156c0-16.21191,6.72949-30.895,20.18848-36.707C286.00244,100.333,279.273,85.6499,279.273,69.4375V54.75488C279.273,21.71826,304.96826,0,343.51025,0c38.84864,0,64.23731,21.71826,64.23731,54.75488V69.4375c0,16.2124-6.72949,30.89551-20.18848,36.707,13.459,5.812,20.18848,20.49512,20.18848,36.707v16.51856C407.74756,192.40625,382.35889,214.125,343.51025,214.125ZM358.49951,57.20215c0-8.56543-6.11816-13.76563-14.98926-13.76563-8.56445,0-14.98828,5.2002-14.98828,13.76563V81.67334c0,8.56494,6.42383,14.07129,14.98828,14.07129,8.8711,0,14.98926-5.50635,14.98926-14.07129Zm0,73.41406c0-8.56543-6.11816-13.76514-14.98926-13.76514-8.56445,0-14.98828,5.19971-14.98828,13.76514v26.30664c0,8.56445,6.42383,13.76465,14.98828,13.76465,8.8711,0,14.98926-5.2002,14.98926-13.76465Z"/><path id="magenta-15" class="cls-3" d="M128.48615,143.62932c-19.57715,16.51856-23.55371,26.001-23.55371,34.87208h65.46143v43.13085H47.42463V209.3969c0-33.64843,11.624-57.20215,47.71924-91.76806,22.94189-21.71875,29.67187-34.26026,29.67187-45.27246,0-11.624-5.20019-16.21241-14.377-16.21241-9.78858,0-14.07129,6.11817-14.07129,16.21241V87.6513H51.40119V65.93255c0-25.69483,18.96533-53.2251,57.814-53.2251,46.19,0,62.0962,28.14209,62.0962,59.34326C171.31135,94.07513,163.97,113.65227,128.48615,143.62932Zm165.79248,36.707v41.29589H247.47736V180.33636H178.95783V146.38225l71.273-128.4746h44.04785v124.498h17.43652v37.93067Zm-46.80127-87.791-26.00049,49.86035h26.00049ZM390.93488,226.83245c-38.542,0-64.2373-21.71875-64.2373-54.75488V155.559c0-16.21191,6.72949-30.895,20.18847-36.707-13.459-5.81152-20.18847-20.49463-20.18847-36.707V67.46233c0-33.03662,25.69531-54.75488,64.2373-54.75488,38.84863,0,64.23731,21.71826,64.23731,54.75488V82.145c0,16.2124-6.7295,30.89551-20.18848,36.707,13.459,5.812,20.18848,20.49512,20.18848,36.707v16.51856C455.17219,205.1137,429.78351,226.83245,390.93488,226.83245ZM405.92414,69.9096c0-8.56543-6.11817-13.76563-14.98926-13.76563-8.56445,0-14.98828,5.2002-14.98828,13.76563V94.38079c0,8.56494,6.42383,14.07129,14.98828,14.07129,8.87109,0,14.98926-5.50635,14.98926-14.07129Zm0,73.41406c0-8.56543-6.11817-13.76514-14.98926-13.76514-8.56445,0-14.98828,5.19971-14.98828,13.76514V169.6303c0,8.56445,6.42383,13.76465,14.98828,13.76465,8.87109,0,14.98926-5.2002,14.98926-13.76465Z"/><path id="green" class="cls-4" d="M291.98039,194.27672v-4.00043c0-16.21191,6.7295-30.895,20.18848-36.707-13.459-5.81152-20.18848-20.49463-20.18848-36.707v-6.01044a29.20264,29.20264,0,0,1,7.481-4.70727,29.20149,29.20149,0,0,1-7.46326-4.69129c.28119-24.31738,14.56531-42.39892,37.66852-50.02978a14.34524,14.34524,0,0,0-1.14471,5.77868v24.4712c0,8.56494,6.42383,14.07128,14.98828,14.07128.2901,0,.56891-.02172.853-.03344a13.3011,13.3011,0,0,0-3.13385,8.91571v12.36737c-7.39533.84863-12.70746,5.83825-12.70746,13.62195v26.30664c0,8.46759,6.28326,13.63775,14.70251,13.75372a13.74081,13.74081,0,0,0-1.995,7.36438v26.30664a13.10442,13.10442,0,0,0,3.93182,9.74841c-.55084.00891-1.0946.029-1.651.029C321.18687,214.125,303.18791,206.82762,291.98039,194.27672Zm64.23731-146.852c-.51953,0-1.02741.01941-1.54224.02728a13.18576,13.18576,0,0,1,3.824,9.75012v24.4712a13.85526,13.85526,0,0,1-3.18653,9.22259c.30091-.01324.59815-.03467.90473-.03467,8.87109,0,14.98926,5.2002,14.98926,13.76563v24.47119c0,7.80615-5.09089,13.05658-12.70746,13.92828v13.89649a14.01979,14.01979,0,0,1-1.92859,7.36609c8.67682.13861,14.636,5.30255,14.636,13.752v26.30664a14.73381,14.73381,0,0,1-1.11933,5.81476c23.43842-7.687,37.65991-26.069,37.65991-50.79224v-1.09356a29.20252,29.20252,0,0,0-7.481-4.70728,29.202,29.202,0,0,0,7.481-4.707v-6.01068c0-16.21192-6.72949-30.895-20.18847-36.707,13.459-5.81153,20.18847-20.49463,20.18847-36.707V67.167C396.58818,54.68108,378.65538,47.42473,356.2177,47.42473ZM48.94286,74.94383V59.64891a23.74938,23.74938,0,0,1,1.19177-7.92541A51.4993,51.4993,0,0,0,23.31242,74.94383Zm12.70745,32.12982c0-10.09423,4.28272-16.2124,14.07129-16.2124,9.17676,0,14.377,4.58838,14.377,16.2124,0,7.25556-2.92438,15.17646-11.47943,25.94727.78906-.68842,1.59588-1.38483,2.44238-2.09906C112.78514,104.12151,122.0081,85.633,123.608,66.27721,113.91161,54.84587,98.2,47.42473,74.498,47.42473c-.21777,0-.42633.01257-.64282.01428,2.3042,2.607,3.536,6.57562,3.536,12.2099,0,11.01221-6.73,23.55371-29.67188,45.27246-6.39477,6.12384-12.00708,11.89728-16.93713,17.44721H61.65031Zm197.91114,22.62458H246.854V52.62492H215.5136L200.05272,80.49425v49.204H174.05223l20.29761-38.92414-42.63617,76.8548h39.99689l21.04962-40.36627V177.123H200.05272v31.80182H246.854v-41.2959h12.70746ZM70.563,208.92479c1.30762-7.76306,6.73438-16.68,23.20594-30.57819,5.20373-4.39618,9.78656-8.56329,13.8454-12.55267H57.5078c0-4.65918,1.1015-9.48883,4.97943-15.41614q-1.00827.97174-2.06055,1.96833c-22.36,21.41265-35.32226,38.60022-41.95477,56.57867Z"/><path id="red" class="cls-5" d="M135.67668,221.63225H47.42461V209.3969c0-33.64844,11.624-57.20215,47.71924-91.76807,22.94189-21.71875,29.67187-34.26025,29.67187-45.27246a29.19868,29.19868,0,0,0-.4295-5.15314c8.64068,10.73535,12.20794,24.80518,12.20794,39.56476,0,13.95465-2.95917,26.93018-14.14441,42.18768-6.41772,5.94544-10.59869,10.90326-13.25622,15.26807-4.43457,4.46191-9.53406,9.14648-15.42456,14.12286-19.57715,16.51856-23.55371,26.001-23.55371,34.87207h65.46142Zm34.71717-43.13086H145.682l-1.44134,2.59814v33.95411h26.1532Zm141.32128-24.71094c-13.14856,5.947-19.73474,20.462-19.73474,36.48584v16.51856a57.06094,57.06094,0,0,0,1.89752,14.8374h.4007v-41.2959h17.43652Zm-19.73474-51.61084v14.68262a51.83715,51.83715,0,0,0,2.29822,15.53613V85.975A56.49169,56.49169,0,0,0,291.98039,102.17961ZM96.36748,72.35637c0-10.09424,4.28271-16.2124,14.07129-16.2124.40735,0,.79718.02032,1.18872.03863C102.36412,50.67583,90.181,47.42473,74.498,47.42473A68.78527,68.78527,0,0,0,53.719,50.464a53.41479,53.41479,0,0,0-2.31787,15.4685V87.65129H96.36748ZM356.2177,218.11223a19.62954,19.62954,0,0,1-3.16461-.25269c10.26782,5.781,23.12878,8.9729,37.88177,8.9729a84.63709,84.63709,0,0,0,27.36261-4.23755,57.138,57.138,0,0,0,2.15753-15.8V190.27629c0-13.74481-4.85657-26.36847-14.53088-33.44092V169.6303c0,8.56445-6.11817,13.76464-14.98926,13.76464-8.56445,0-14.98828-5.20019-14.98828-13.76464V143.32365c0-8.56543,6.42383-13.76513,14.98828-13.76513,8.87109,0,14.98926,5.1997,14.98926,13.76513v6.97968c9.67431-7.0722,14.53088-19.69586,14.53088-33.4411V102.17961c0-15.54516-5.62445-28.58172-15.62433-38.03137a14.771,14.771,0,0,1,1.09345,5.76135V94.38078c0,8.56494-6.11817,14.07129-14.98926,14.07129-8.56445,0-14.98828-5.50635-14.98828-14.07129V69.90959c0-8.56543,6.42383-13.76562,14.98828-13.76562a20.53044,20.53044,0,0,1,3.31982.26581c-10.26055-5.78864-23.15625-8.98505-38.037-8.98505a84.0303,84.0303,0,0,0-27.353,4.27991,56.65814,56.65814,0,0,0-2.16717,15.75769V82.14494c0,13.74567,4.85687,26.36975,14.53186,33.44184v-10.9599c0-8.56543,6.42382-13.76563,14.98828-13.76563,8.87109,0,14.98926,5.2002,14.98926,13.76563v24.47119c0,8.56494-6.11817,14.07129-14.98926,14.07129-8.56446,0-14.98828-5.50635-14.98828-14.07129v-6.98071c-9.675,7.07232-14.53186,19.69635-14.53186,33.44165v16.51855c0,15.49683,5.65466,28.50275,15.63653,37.94537a14.37177,14.37177,0,0,1-1.10467-5.67535V178.04094c0-8.56543,6.42382-13.76514,14.98828-13.76514,8.87109,0,14.98926,5.19971,14.98926,13.76514v26.30664C371.207,212.912,365.08879,218.11223,356.2177,218.11223Zm-44.50257-64.76416V142.40569H299.00676A30.17941,30.17941,0,0,0,311.71513,153.34807Zm-64.23779,68.28418v-41.2959H178.95781v-33.9541l52.01306-93.75733h28.59058V177.123H276.998v37.93067H259.56145v6.57861Zm-34.71716-94.36963L186.75969,177.123h26.00049Zm34.71716,15.14307V92.54533l-26.00049,49.86036Z"/><path id="blue" class="cls-6" d="M95.14385,117.62883c2.76141-2.61414,5.28234-5.09235,7.59051-7.45392a194.1734,194.1734,0,0,1-16.36658,16.14722C89.12138,123.49535,92.03551,120.60545,95.14385,117.62883Zm9.78857,60.87256a25.50167,25.50167,0,0,1,3.35449-12.70746H57.5078q0-.76557.04352-1.53882c-7.19819,14.14453-10.06757,28.20575-10.12153,44.66968h75.53943v-30.4234Zm26.60077-37.48291c32.85675-28.51563,39.77814-47.58966,39.77814-68.96777a84.89109,84.89109,0,0,0-.49353-9.18927l-39.28461,70.81335Zm-68.519-97.582c9.17675,0,14.37695,4.58838,14.37695,16.2124,0,7.70868-3.30719,16.17157-13.15527,28.00238H96.36748V72.35637c0-10.09424,4.28271-16.2124,14.07129-16.2124,6.74249,0,11.32769,2.49072,13.2915,8.41534q.15519-2.59176.15643-5.21606c0-18.20526-5.431-35.35773-19.11755-46.49744C79.13384,14.29167,62.87364,28.19029,55.6917,45.02928A15.57287,15.57287,0,0,1,63.01415,43.43651ZM200.05272,180.33635H246.854V167.62889h17.43652V129.69823H247.47734v12.70746H221.47685l25.37714-48.665V23.99449l-46.80127,84.36267v21.34107H188.21349l-9.25568,16.684v21.24664h21.09491Zm94.22589,0h17.43652V142.40569H294.27861V109.05931c-9.995,7.00128-15.00568,19.82147-15.00568,33.79224V159.3701c0,15.161,5.4242,27.92835,15.00568,37.3169Zm52.89941,33.7218c-12.971-9.60132-20.48046-24.13458-20.48046-41.98059V155.559a52.66453,52.66453,0,0,1,1.8244-13.95264v15.31647c0,8.56445,6.42383,13.76465,14.98828,13.76465,8.87109,0,14.98926-5.2002,14.98926-13.76465V130.6162c0-8.56543-6.11817-13.76514-14.98926-13.76514-.12787,0-.25043.01215-.37732.01446-10.944-6.74859-16.43536-20.10113-16.43536-34.72058V67.46233c0-32.0116,24.12585-53.39588,60.68756-54.692,12.9403,9.60114,20.36242,24.13586,20.36242,41.98456V69.43749a52.66673,52.66673,0,0,1-1.82342,13.94909v-13.477c0-8.56543-6.11817-13.76562-14.98926-13.76562-8.56445,0-14.98828,5.20019-14.98828,13.76562V94.38078c0,8.56494,6.42383,14.07129,14.98828,14.07129.28937,0,.56744-.02166.85083-.03332,10.6322,6.8385,15.96185,20.02362,15.96185,34.4328V159.3701C407.74754,191.35466,383.94872,212.72972,347.178,214.05815Zm28.76856-44.42785c0,8.56445,6.42383,13.76464,14.98828,13.76464,8.87109,0,14.98926-5.20019,14.98926-13.76464V143.32365c0-8.56543-6.11817-13.76513-14.98926-13.76513-8.56445,0-14.98828,5.1997-14.98828,13.76513Zm-17.44708-87.957V57.20213c0-8.56543-6.11817-13.76562-14.98926-13.76562-8.56445,0-14.98828,5.20019-14.98828,13.76562v24.4712c0,8.56494,6.42383,14.07128,14.98828,14.07128C352.38133,95.74461,358.4995,90.23827,358.4995,81.67333ZM279.27293,54.75487V69.43749c0,13.97119,5.01069,26.7915,15.00568,33.79241V17.90764h-.47C284.52147,27.25084,279.27293,39.84428,279.27293,54.75487Z"/><path id="black" d="M299.00676,142.40569h12.70837v10.94238A30.17941,30.17941,0,0,1,299.00676,142.40569Zm27.6908-60.26075c0,13.74567,4.85687,26.36975,14.53186,33.44184v-10.9599a13.3011,13.3011,0,0,1,3.13385-8.91571c-.28412.01172-.56293.03344-.853.03344-8.56445,0-14.98828-5.50634-14.98828-14.07128V57.20213a14.34524,14.34524,0,0,1,1.14471-5.77868c-.27093.08947-.53338.18884-.80194.28119a56.65814,56.65814,0,0,0-2.16717,15.75769Zm-32.41895,21.085V85.975a56.26765,56.26765,0,0,0-2.28046,15.47827C292.72807,102.07958,293.48583,102.67461,294.27861,103.2299Zm-94.22589,26.46833H188.21349l-9.25568,16.684v21.24664h12.75275l21.04962-40.36627V177.123H200.05272v3.21338H246.854V167.62889h12.70746V129.69823H247.47734v12.70746H221.47685l25.37714-48.665V52.62492H230.97087l-30.91815,55.73224Zm142.28137,80.3247a14.37177,14.37177,0,0,1-1.10467-5.67535V178.04094a13.74081,13.74081,0,0,1,1.995-7.36438c-8.41925-.116-14.70251-5.28613-14.70251-13.75372V141.60637a52.66453,52.66453,0,0,0-1.8244,13.95264v16.51855C326.69756,187.57439,332.35222,200.58031,342.33409,210.02293ZM294.27861,109.05931c-.79932.55994-1.5628,1.16034-2.29822,1.79248v6.01044a51.83715,51.83715,0,0,0,2.29822,15.53613ZM96.36748,87.65129V72.35637c0-10.09424,4.28271-16.2124,14.07129-16.2124.40735,0,.79718.02032,1.18872.03863C102.36412,50.67583,90.181,47.42473,74.498,47.42473c-.21777,0-.42633.01257-.64282.01428,2.3042,2.607,3.536,6.57562,3.536,12.2099,0,7.70868-3.30719,16.17157-13.15527,28.00238ZM370.08763,210.16234c23.43842-7.687,37.65991-26.069,37.65991-50.79224v-1.09356c-.58667-.50428-1.1961-.98255-1.82342-1.44117V169.6303c0,8.56445-6.11817,13.76464-14.98926,13.76464-8.56445,0-14.98828-5.20019-14.98828-13.76464V143.32365c0-8.56543,6.42383-13.76513,14.98828-13.76513,8.87109,0,14.98926,5.1997,14.98926,13.76513v6.97968c.62732-.45862,1.23675-.93683,1.82342-1.4411v-6.01068c0-14.40918-5.32965-27.5943-15.96185-34.4328-.28339.01166-.56146.03332-.85083.03332-8.56445,0-14.98828-5.50635-14.98828-14.07129V69.90959c0-8.56543,6.42383-13.76562,14.98828-13.76562a20.53044,20.53044,0,0,1,3.31982.26581c-10.26055-5.78864-23.15625-8.98505-38.037-8.98505-.51953,0-1.02741.01941-1.54224.02728a13.18576,13.18576,0,0,1,3.824,9.75012v24.4712a13.85526,13.85526,0,0,1-3.18653,9.22259c.30091-.01324.59815-.03467.90473-.03467,8.87109,0,14.98926,5.2002,14.98926,13.76563v24.47119c0,7.80615-5.09089,13.05658-12.70746,13.92828v13.89649a14.01979,14.01979,0,0,1-1.92859,7.36609c8.67682.13861,14.636,5.30255,14.636,13.752v26.30664A14.73381,14.73381,0,0,1,370.08763,210.16234ZM47.42979,208.92479H70.563c1.30762-7.76306,6.73438-16.68,23.20594-30.57819,5.20373-4.39618,9.78656-8.56329,13.8454-12.55267H57.5078q0-.76557.04352-1.53882C50.35313,178.39964,47.48375,192.46086,47.42979,208.92479Zm264.28534-28.58844v-26.5459c-13.14856,5.947-19.73474,20.462-19.73474,36.48584v4.00043q1.10633,1.239,2.29822,2.41028V180.33635ZM102.73436,110.17491c-2.30817,2.36157-4.8291,4.83978-7.59051,7.45392-3.10834,2.97662-6.02247,5.86652-8.77607,8.6933A194.1734,194.1734,0,0,0,102.73436,110.17491ZM407.74754,69.43749V67.167c-.92956-1.04-1.89447-2.05261-2.91687-3.0188a14.771,14.771,0,0,1,1.09345,5.76135v13.477A52.66673,52.66673,0,0,0,407.74754,69.43749Z"/></g></g></svg>